<svg width="59" height="33" viewBox="0 0 59 33" fill="none" xmlns="http://www.w3.org/2000/svg">
<rect width="59" height="33" fill="white"/>
<path d="M11.7948 6.55422V10.6506H0V6.55422H11.7948ZM2.67774 2.52499L8.10974 1.84338V20.1747C8.10974 20.6782 8.18625 21.0708 8.33926 21.3524C8.49227 21.6255 8.70479 21.8175 8.97682 21.9285C9.25734 22.0394 9.58037 22.0949 9.9459 22.0949C10.2009 22.0949 10.456 22.0735 10.711 22.0309C10.966 21.9797 11.1615 21.9413 11.2975 21.9157L12.1519 25.9736C11.8798 26.059 11.4973 26.1571 11.0043 26.2681C10.5112 26.3876 9.9119 26.4601 9.20634 26.4857C7.89722 26.5369 6.74961 26.362 5.76352 25.9608C4.78594 25.5597 4.02512 24.9367 3.48107 24.0919C2.93702 23.247 2.66924 22.1802 2.67774 20.8916V2.52499Z" fill="currentColor"/>
<path d="M58.1626 0.277519V26.4944H52.7306L52.7136 0.960248L58.1626 0.277519Z" fill="currentColor"/>
<path d="M49.6487 15.3802C49.6487 19.2011 47.4666 22.5124 44.2805 24.1358C42.944 24.8167 41.431 25.2006 39.8282 25.2006C34.4045 25.2006 30.0078 20.8039 30.0078 15.3802C30.0078 9.95645 34.4045 5.55967 39.8282 5.55967C45.2519 5.55967 49.6487 9.95645 49.6487 15.3802Z" fill="currentColor"/>
<path d="M35.5459 31.2703C36.8041 31.7568 38.3129 32 40.0726 32C41.9428 32 43.5962 31.7141 45.0328 31.1423C46.4779 30.5791 47.6085 29.7342 48.4246 28.6077C49.2407 27.4812 49.6487 26.0816 49.6487 24.4089L49.6487 15.3802C49.6487 19.2011 47.4666 22.5124 44.2805 24.1358V24.3321C44.2805 25.6805 43.8937 26.6406 43.1201 27.2124C42.3551 27.7927 41.3817 28.0828 40.2001 28.0828C39.4095 28.0828 38.738 27.9762 38.1854 27.7628C37.6414 27.558 37.2036 27.2849 36.8721 26.9435C36.5405 26.6022 36.2983 26.2352 36.1452 25.8426L31.1213 26.5211C31.3423 27.5537 31.8226 28.4839 32.5622 29.3117C33.3017 30.1396 34.2963 30.7924 35.5459 31.2703Z" fill="currentColor"/>
<path d="M23.7023 25.7006C25.0901 25.7006 26.4148 25.4265 27.6245 24.9291C27.5268 25.8429 27.1954 26.4418 26.697 26.8103L26.697 26.8102L26.692 26.814C26.0324 27.3144 25.1724 27.5828 24.0742 27.5828C23.3258 27.5828 22.719 27.4815 22.2396 27.2964L22.2357 27.2949C21.7456 27.1104 21.375 26.8733 21.1048 26.5952C20.8138 26.2955 20.611 25.9839 20.4852 25.661L20.3423 25.2945L19.9524 25.3471L14.9285 26.0256L14.3935 26.0978L14.5064 26.6257C14.7466 27.7477 15.269 28.7557 16.0634 29.6449C16.8657 30.543 17.9319 31.2364 19.2405 31.737C20.5705 32.2511 22.1435 32.5 23.9467 32.5C25.8665 32.5 27.5841 32.2066 29.0901 31.6075C30.6133 31.0136 31.8252 30.1136 32.7036 28.901C33.5932 27.6731 34.0228 26.1651 34.0228 24.4089L34.0228 15.3802V14.1752L33.9603 14.2376C33.3917 9.07539 29.016 5.05967 23.7023 5.05967C18.0025 5.05967 13.3818 9.68031 13.3818 15.3802C13.3818 21.08 18.0025 25.7006 23.7023 25.7006Z" fill="currentColor" stroke="white"/>
<rect x="18.6045" y="9.33057" width="27.0069" height="12.2959" rx="6.14795" fill="white"/>
<rect x="36.0417" y="11.8249" width="7.573" height="7.30731" rx="3.65366" fill="currentColor"/>
</svg>
